# xmcd
# Track frame offsets:
# 150
# 10887
# 25300
# 34387
# 46100
# 57187
# 69850
# 82487
# 95012
# 108137
# 120425
# 137062
# 147337
# 160700
# 172950
# 183912
# 196737
# 207462
# 218825
# 227487
# 242112
#
# Disc length: 3368 seconds
# Revision: 0
# Processed by: cddbd v1.4PL0 Copyright (c) Steve Scherf et al.
# Submitted via: VisiTrax 2.9.5.181 - For more info visit www.synapsa.com
#
DISCID=1e0d2615
DTITLE=Rosemary Clooney - Country Rose
DYEAR=2003
DGENRE=
TTITLE0=This Ole House
TTITLE1=Brave Man
TTITLE2=Why Don't You Love Me
TTITLE3=Grapevine Swing
TTITLE4=No Letter Today
TTITLE5=Half As Much
TTITLE6=(Don't That Take The) Rag Offen The Bush
TTITLE7=Withered Roses
TTITLE8=Kentucky Waltz
TTITLE9=Shot Gun Boogie
TTITLE10=You Are My Sunshine
TTITLE11=I Wish I Wuz (hi Ho, Fiddle Dee Dee)
TTITLE12=Nobody's Darling But Mine
TTITLE13=You Love Me Just Enough To Hurt Me
TTITLE14=Why Don't You Haul Off and Love Me
TTITLE15=I Whisper Your Name
TTITLE16=I'm Waiting Just For You
TTITLE17=(Remember Me) I'm The One Who Love You
TTITLE18=If Teardrops Were Pennies
TTITLE19=Beautiful Brown Eyes
TTITLE20=You're The Only One For Me
EXTD=Collectors' Choice Music A 61297 c.2003
EXTT0=
EXTT1=
EXTT2=
EXTT3=
EXTT4=
EXTT5=
EXTT6=
EXTT7=
EXTT8=
EXTT9=
EXTT10=
EXTT11=
EXTT12=
EXTT13=
EXTT14=
EXTT15=
EXTT16=
EXTT17=
EXTT18=
EXTT19=
EXTT20=
PLAYORDER=
